# xmcd
#
# Track frame offsets:
# 150
# 14989
# 25279
# 33626
# 51427
# 63371
# 73162
# 93099
# 106160
# 119579
# 131861
# 146968
# 162179
# 177782
# 188465
# 203116
# 217698
# 234029
# 253037
# 270070
# 284868
# 302943
# 310989
# 324205
#
# Disc length: 4567 seconds
#
#
# Revision: 1
# Processed by: cddbd v1.5.2PL0 Copyright (c) Steve Scherf et al.
# Submitted via: FreeRIP 2.96 
#
DISCID=6111d518
DTITLE=Anita O'Day - Lady O'Day
DYEAR=2007
DGENRE=Jazz
TTITLE0=Let's Face The Music And Dance
TTITLE1=Satin Doll
TTITLE2=Night And Day
TTITLE3=Bewitched, Bothered And Bewildered
TTITLE4=Them There Eyes
TTITLE5=Why Shouldn't I
TTITLE6=Our Love Is Here To Stay
TTITLE7=Between The Devil And The Deep Blue Sea
TTITLE8=S'Wonderful - They Can't Take That Away From Me
TTITLE9=My Ship
TTITLE10=Afternoon In Paris
TTITLE11=Let Me Off Uptown
TTITLE12=Anita's Blues
TTITLE13=Let's Begin
TTITLE14=Honesuckle Rose
TTITLE15=My Heart Belongs To Daddy
TTITLE16=Love For Sale
TTITLE17=Sweet Georgia Brown
TTITLE18=There Will Never Be Another You
TTITLE19=The Man I Love
TTITLE20=You'd Be So Nice To Come Home To
TTITLE21=Lonesome Road
TTITLE22=Geogia On My Mind
TTITLE23=Is You Is Or Is You Ain't My Baby?
EXTD=MJCD 1192\nn. 6/2007
EXTT0=
EXTT1=
EXTT2=
EXTT3=
EXTT4=
EXTT5=
EXTT6=
EXTT7=
EXTT8=
EXTT9=
EXTT10=
EXTT11=
EXTT12=
EXTT13=
EXTT14=
EXTT15=
EXTT16=
EXTT17=
EXTT18=
EXTT19=
EXTT20=
EXTT21=
EXTT22=
EXTT23=
PLAYORDER=
